{"title":"The.Punk.Syndrome.2012.DOCU.DVDRiP.XViD-FiRMAN","uid":11768423,"size":736006613,"categoryP":"video","categoryS":"movies","magnet":"?xt=urn:btih:d5d87d95f6c46b31edc3fa5e112d9c055229e197&amp;dn=The.Punk.Syndrome.2012.DOCU.DVDRiP.XViD-FiRMAN&amp;tr=udp%3A%2F%2Ftracker.openbittorrent.com%3A80&amp;tr=udp%3A%2F%2Fopen.demonii.com%3A1337&amp;tr=udp%3A%2F%2Ftracker.coppersurfer.tk%3A6969&amp;tr=udp%3A%2F%2Fexodus.desync.com%3A6969","seeders":3,"leechers":0,"uploader":"rpessoa","files":8,"time":1426958665,"description":"A Finnish punk-rock band formed by four mentally disabled guys.\n &lt;a href=&quot;\nhttp://www.imdb.com/title/tt1774438/&quot; rel=&quot;nofollow&quot; target=&quot;_NEW&quot;&gt;\nhttp://www.imdb.com/title/tt1774438/&lt;/a&gt;\n\nSubs: English, Portuguese, Finnish, Russian, Hungarian, Swedish\n\nGeneral\nComplete name                            : The.Punk.Syndrome.2012.DOCU.DVDRiP.XViD-FiRMANfirman-tpsyndrome.avi\nFormat                                   : AVI\nFormat/Info                              : Audio Video Interleave\nFile size                                : 701 MiB\nDuration                                 : 1h 24mn\nOverall bit rate                         : 1 161 Kbps\nWriting application                      : VirtualDubMod 1.5.4.1 (build 2178/release)\nWriting library                          : VirtualDubMod build 2178/release\n\nVideo\nID                                       : 0\nFormat                                   : MPEG-4 Visual\nFormat profile                           : Advanced Simple@L5\nFormat settings, BVOP                    : 1\nFormat settings, QPel                    : No\nFormat settings, GMC                     : No warppoints\nFormat settings, Matrix                  : Custom\nCodec ID                                 : XVID\nCodec ID/Hint                            : XviD\nDuration                                 : 1h 24mn\nBit rate                                 : 1 026 Kbps\nWidth                                    : 608 pixels\nHeight                                   : 352 pixels\nDisplay aspect ratio                     : 1.727\nFrame rate                               : 25.000 fps\nColor space                              : YUV\nChroma subsampling                       : 4:2:0\nBit depth                                : 8 bits\nScan type                                : Progressive\nCompression mode                         : Lossy\nBits/(Pixel*Frame)                       : 0.192\nStream size                              : 620 MiB (88%)\nWriting library                          : XviD 1.2.1 (UTC 2008-12-04)\n\nAudio\nID                                       : 1\nFormat                                   : MPEG Audio\nFormat version                           : Version 1\nFormat profile                           : Layer 3\nMode                                     : Joint stereo\nCodec ID                                 : 55\nCodec ID/Hint                            : MP3\nDuration                                 : 1h 24mn\nBit rate mode                            : Constant\nBit rate                                 : 128 Kbps\nChannel(s)                               : 2 channels\nSampling rate                            : 48.0 KHz\nCompression mode                         : Lossy\nStream size                              : 77.3 MiB (11%)\nAlignment                                : Aligned on interleaves\nInterleave, duration                     : 80 ms (2.00 video frames)\nInterleave, preload duration             : 504 ms\nWriting library                          : LAME3.98r\nEncoding settings                        : -m j -V 4 -q 2 -lowpass 17 -b 128\nLanguage                                 : Suomi","torrent":{"xt":"urn:btih:d5d87d95f6c46b31edc3fa5e112d9c055229e197","amp;dn":"The.Punk.Syndrome.2012.DOCU.DVDRiP.XViD-FiRMAN","amp;tr":["udp%3A%2F%2Ftracker.openbittorrent.com%3A80","udp%3A%2F%2Fopen.demonii.com%3A1337","udp%3A%2F%2Ftracker.coppersurfer.tk%3A6969","udp%3A%2F%2Fexodus.desync.com%3A6969"],"infoHash":"d5d87d95f6c46b31edc3fa5e112d9c055229e197","infoHashBuffer":{"type":"Buffer","data":[213,216,125,149,246,196,107,49,237,195,250,94,17,45,156,5,82,41,225,151]},"announce":[],"urlList":[]}}